<svg id="Icon" viewBox="0 0 24 24" xmlns="http://www.w3.org/2000/svg">
    <path
        d="m12.012 2.25h-.024c-4.377 0-7.938 3.561-7.938 7.938v.823c0 4.482 3.46 9.283 7.713 10.701.077.025.157.038.237.038s.16-.013.237-.038c4.253-1.418 7.713-6.219 7.713-10.701v-.823c0-4.377-3.561-7.938-7.938-7.938z"
        fill="#000" />
    <path
        d="m8.342 11.226v.155c0 1.118.632 2.141 1.632 2.641 1.275.638 2.776.638 4.051 0h.001c1-.5 1.631-1.522 1.631-2.64v-.002c0-.783-.311-1.533-.864-2.086l-2.345-2.345c-.197-.197-.535-.104-.602.167l-.456 1.823-.926-.926c-.155-.155-.41-.136-.541.038l-.94 1.253c-.416.555-.641 1.229-.641 1.922z"
        fill="#00aced" />
    <path
        d="m12.012 2.25h-.024c-4.377 0-7.938 3.561-7.938 7.938v.823c0 4.482 3.46 9.283 7.713 10.701.077.025.157.038.237.038s.16-.013.237-.038c4.253-1.418 7.713-6.219 7.713-10.701v-.823c0-4.377-3.561-7.938-7.938-7.938zm6.438 8.761c0 3.736-2.93 7.883-6.45 9.194-3.52-1.312-6.45-5.458-6.45-9.194v-.823c0-3.55 2.888-6.438 6.438-6.438h.024c3.55 0 6.438 2.888 6.438 6.438zm-5.92-5.041c-.191-.191-.471-.266-.73-.192-.26.072-.462.279-.527.541l-.288 1.153-.283-.282c-.154-.154-.361-.239-.583-.218-.217.015-.416.124-.547.298l-1.188 1.584c-.51.68-.791 1.523-.791 2.372v.155c0 1.412.784 2.681 2.047 3.312.739.369 1.55.555 2.361.555s1.623-.186 2.362-.555c1.262-.631 2.045-1.899 2.045-3.312 0-.988-.385-1.918-1.084-2.617l-2.793-2.793zm1.16 7.381c-1.059.529-2.322.529-3.38 0-.751-.375-1.217-1.13-1.217-1.97v-.155c0-.527.174-1.05.491-1.472l.669-.893.608.608c.191.191.471.266.73.192.26-.072.462-.279.527-.541l.288-1.153 1.857 1.856c.416.416.645.968.645 1.559 0 .839-.466 1.593-1.218 1.968z"
        fill="#00aced" />
</svg>